<?xml version="1.0" encoding="UTF-8" standalone="no"?>
<!-- Created with Inkscape (http://www.inkscape.org/) -->

<svg
   xmlns:dc="http://purl.org/dc/elements/1.1/"
   xmlns:cc="http://creativecommons.org/ns#"
   xmlns:rdf="http://www.w3.org/1999/02/22-rdf-syntax-ns#"
   xmlns:svg="http://www.w3.org/2000/svg"
   xmlns="http://www.w3.org/2000/svg"
   xmlns:sodipodi="http://sodipodi.sourceforge.net/DTD/sodipodi-0.dtd"
   xmlns:inkscape="http://www.inkscape.org/namespaces/inkscape"
   width="451.10721"
   height="399.7027"
   id="svg2"
   version="1.1"
   inkscape:version="0.48.1 r9760"
   sodipodi:docname="New document 1">
  <defs
     id="defs4" />
  <sodipodi:namedview
     id="base"
     pagecolor="#ffffff"
     bordercolor="#666666"
     borderopacity="1.0"
     inkscape:pageopacity="0.0"
     inkscape:pageshadow="2"
     inkscape:zoom="0.49497475"
     inkscape:cx="222.80435"
     inkscape:cy="207.36118"
     inkscape:document-units="px"
     inkscape:current-layer="layer1"
     showgrid="false"
     fit-margin-left="20"
     fit-margin-top="20"
     fit-margin-bottom="20"
     fit-margin-right="20"
     inkscape:window-width="1024"
     inkscape:window-height="576"
     inkscape:window-x="0"
     inkscape:window-y="24"
     inkscape:window-maximized="1" />
  <metadata
     id="metadata7">
    <rdf:RDF>
      <cc:Work
         rdf:about="">
        <dc:format>image/svg+xml</dc:format>
        <dc:type
           rdf:resource="http://purl.org/dc/dcmitype/StillImage" />
        <dc:title></dc:title>
      </cc:Work>
    </rdf:RDF>
  </metadata>
  <g
     inkscape:groupmode="layer"
     id="layer2"
     inkscape:label="Layer"
     style="display:inline"
     transform="translate(-175.89325,-349.59623)">
    <path
       id="path3049"
       style="fill:#ffffff;stroke:#b0afb5;stroke-width:13;stroke-linecap:butt;stroke-linejoin:miter;stroke-opacity:1;display:inline;stroke-miterlimit:4;stroke-dasharray:none"
       d="m 489.79833,416.11696 0,-27.30863 c 0,0 -8.03189,-12.85111 25.70235,-12.85111 33.73424,0 30.52143,12.85111 30.52143,12.85111 l 0,30.52143 53.01097,53.01097 c 0,0 0,178.30963 0,208.83106 0,30.52143 -11.24483,41.76614 -38.55346,41.76614 -27.30862,0 -80.31959,-167.0648 -80.31959,-167.0648 -52.47537,0 -104.95087,0 -157.42624,0 0,0 -53.01096,167.0648 -80.31959,167.0648 -27.30862,0 -38.55345,-11.24471 -38.55345,-41.76614 0,-30.52143 0,-208.83106 0,-208.83106 l 53.01097,-53.01097 0,-30.52143 c 0,0 -3.21281,-12.85111 30.52143,-12.85111 33.73424,0 25.70234,12.85111 25.70234,12.85111 l 0,27.30863 c 58.90099,0 117.80185,0 176.70284,0 z"
       inkscape:connector-curvature="0"
       sodipodi:nodetypes="ccscccssccsscccsccc" />
    <path
       sodipodi:type="arc"
       style="fill:#ffffff;fill-opacity:1;stroke:#b0afb5;stroke-opacity:1;display:inline;stroke-width:1.02185344;stroke-miterlimit:4;stroke-dasharray:none"
       id="path3022"
       sodipodi:cx="632.35547"
       sodipodi:cy="698.6825"
       sodipodi:rx="6.5659914"
       sodipodi:ry="6.5659914"
       d="m 638.92146,698.6825 c 0,3.62629 -2.93969,6.56599 -6.56599,6.56599 -3.6263,0 -6.56599,-2.9397 -6.56599,-6.56599 0,-3.6263 2.93969,-6.566 6.56599,-6.566 3.6263,0 6.56599,2.9397 6.56599,6.566 z"
       transform="matrix(12.721981,0,0,12.721981,-7759.0276,-8403.4337)" />
    <path
       d="m 638.92146,698.6825 c 0,3.62629 -2.93969,6.56599 -6.56599,6.56599 -3.6263,0 -6.56599,-2.9397 -6.56599,-6.56599 0,-3.6263 2.93969,-6.566 6.56599,-6.566 3.6263,0 6.56599,2.9397 6.56599,6.566 z"
       sodipodi:ry="6.5659914"
       sodipodi:rx="6.5659914"
       sodipodi:cy="698.6825"
       sodipodi:cx="632.35547"
       id="path3051"
       style="fill:#ffffff;fill-opacity:1;stroke:#b0afb5;stroke-opacity:1;display:inline;stroke-width:1.02185344;stroke-miterlimit:4;stroke-dasharray:none"
       sodipodi:type="arc"
       transform="matrix(-12.721981,0,0,12.721981,8561.9213,-8403.4337)" />
  </g>
  <g
     inkscape:label="Layer 1"
     inkscape:groupmode="layer"
     id="layer1"
     style="display:inline"
     transform="translate(-175.89325,-349.59623)">
    <path
       sodipodi:type="arc"
       style="fill:#e17de1;fill-opacity:1;stroke:#727292;stroke-opacity:1;stroke-width:0.78604110000000005;stroke-miterlimit:4;stroke-dasharray:none"
       id="path3025"
       sodipodi:cx="647.25525"
       sodipodi:cy="698.6825"
       sodipodi:rx="1.5152289"
       sodipodi:ry="1.5152289"
       d="m 648.77048,698.6825 c 0,0.83683 -0.67839,1.51522 -1.51523,1.51522 -0.83684,0 -1.51523,-0.67839 -1.51523,-1.51522 0,-0.83684 0.67839,-1.51523 1.51523,-1.51523 0.83684,0 1.51523,0.67839 1.51523,1.51523 z"
       transform="matrix(12.721981,0,0,12.721981,-7757.4212,-8403.4337)" />
    <path
       transform="matrix(12.721981,0,0,12.721981,-7680.056,-8403.4337)"
       d="m 648.77048,698.6825 c 0,0.83683 -0.67839,1.51522 -1.51523,1.51522 -0.83684,0 -1.51523,-0.67839 -1.51523,-1.51522 0,-0.83684 0.67839,-1.51523 1.51523,-1.51523 0.83684,0 1.51523,0.67839 1.51523,1.51523 z"
       sodipodi:ry="1.5152289"
       sodipodi:rx="1.5152289"
       sodipodi:cy="698.6825"
       sodipodi:cx="647.25525"
       id="path3027"
       style="fill:#e46868;fill-opacity:1;stroke:#727292;stroke-opacity:1;stroke-width:0.78604110000000005;stroke-miterlimit:4;stroke-dasharray:none"
       sodipodi:type="arc" />
    <path
       transform="matrix(0,-12.721981,12.721981,0,-8372.9951,8758.2435)"
       d="m 648.77048,698.6825 c 0,0.83683 -0.67839,1.51522 -1.51523,1.51522 -0.83684,0 -1.51523,-0.67839 -1.51523,-1.51522 0,-0.83684 0.67839,-1.51523 1.51523,-1.51523 0.83684,0 1.51523,0.67839 1.51523,1.51523 z"
       sodipodi:ry="1.5152289"
       sodipodi:rx="1.5152289"
       sodipodi:cy="698.6825"
       sodipodi:cx="647.25525"
       id="path3029"
       style="fill:#81dddd;fill-opacity:1;stroke:#727292;stroke-opacity:1;stroke-width:0.78604110000000005;stroke-miterlimit:4;stroke-dasharray:none"
       sodipodi:type="arc" />
    <path
       sodipodi:type="arc"
       style="fill:#5dd85d;fill-opacity:1;stroke:#727292;stroke-opacity:1;stroke-width:0.78604110000000005;stroke-miterlimit:4;stroke-dasharray:none"
       id="path3031"
       sodipodi:cx="647.25525"
       sodipodi:cy="698.6825"
       sodipodi:rx="1.5152289"
       sodipodi:ry="1.5152289"
       d="m 648.77048,698.6825 c 0,0.83683 -0.67839,1.51522 -1.51523,1.51522 -0.83684,0 -1.51523,-0.67839 -1.51523,-1.51522 0,-0.83684 0.67839,-1.51523 1.51523,-1.51523 0.83684,0 1.51523,0.67839 1.51523,1.51523 z"
       transform="matrix(0,-12.721981,12.721981,0,-8372.9951,8680.8773)" />
    <path
       style="fill:#7f7e8f;fill-opacity:1;stroke:none"
       d="m 235.58708,472.44111 0,26.00347 31.82658,0 10.74278,-13.00174 -10.74278,-13.00173 z"
       id="path3037"
       inkscape:connector-curvature="0"
       sodipodi:nodetypes="cccccc" />
    <path
       sodipodi:nodetypes="cccccc"
       inkscape:connector-curvature="0"
       id="path3039"
       d="m 337.19143,498.44458 0,-26.00347 -31.82658,0 -10.74282,13.00173 10.74282,13.00174 z"
       style="fill:#7f7e8f;fill-opacity:1;stroke:none" />
    <path
       sodipodi:nodetypes="cccccc"
       inkscape:connector-curvature="0"
       id="path3041"
       d="m 273.38752,536.24502 26.00347,0 0,-31.82658 -13.00173,-10.74282 -13.00174,10.74282 z"
       style="fill:#7f7e8f;fill-opacity:1;stroke:none" />
    <path
       style="fill:#7f7e8f;fill-opacity:1;stroke:none"
       d="m 299.39099,434.64067 -26.00347,0 0,31.82658 13.00174,10.74282 13.00173,-10.74282 z"
       id="path3043"
       inkscape:connector-curvature="0"
       sodipodi:nodetypes="cccccc" />
    <rect
       style="fill:#6c6d72;fill-opacity:1;stroke:none"
       id="rect3045"
       width="19.362621"
       height="15.26073"
       x="371.99866"
       y="523.56458" />
    <rect
       y="523.56458"
       x="409.8558"
       height="15.26073"
       width="19.362621"
       id="rect3056"
       style="fill:#6c6d72;fill-opacity:1;stroke:none" />
  </g>
</svg>
